<?xml version="1.0" standalone="no"?>
<!DOCTYPE svg PUBLIC "-//W3C//DTD SVG 20010904//EN"
 "http://www.w3.org/TR/2001/REC-SVG-20010904/DTD/svg10.dtd">
<svg version="1.0" xmlns="http://www.w3.org/2000/svg"
 width="500.000000pt" height="500.000000pt" viewBox="0 0 500.000000 500.000000"
 preserveAspectRatio="xMidYMid meet">

<g transform="translate(0.000000,500.000000) scale(0.100000,-0.100000)"
fill="#000000" stroke="none">
<path d="M2328 3954 c-96 -23 -177 -70 -254 -149 -71 -72 -72 -72 -143 -83
-195 -29 -341 -172 -373 -364 -10 -63 -12 -67 -52 -88 -96 -53 -185 -170 -220
-289 -20 -69 -21 -199 -1 -274 35 -136 140 -274 264 -347 150 -88 338 -100
482 -31 l43 21 53 -52 c37 -36 50 -55 42 -63 -6 -6 -107 -12 -262 -15 -252 -5
-252 -5 -298 -32 -25 -15 -65 -43 -88 -63 -24 -19 -47 -33 -52 -30 -5 3 -13
23 -19 45 -19 69 -44 80 -190 80 -160 0 -164 -3 -155 -111 l7 -74 -77 -155
c-85 -171 -125 -268 -125 -305 0 -13 10 -36 23 -50 21 -25 29 -27 126 -31 113
-5 162 5 186 39 l15 21 22 -21 c39 -36 74 -43 226 -43 81 0 153 -4 160 -9 11
-7 11 -19 1 -68 -7 -32 -9 -71 -6 -85 9 -34 46 -77 94 -111 35 -24 51 -27 205
-38 120 -8 216 -9 340 -2 95 6 297 8 448 6 182 -4 289 -2 315 6 50 13 121 64
140 101 13 26 22 145 14 183 -4 16 16 17 326 18 182 0 346 5 365 10 55 14 74
55 67 143 -16 179 -80 237 -193 176 -24 -13 -46 -22 -49 -18 -3 3 -8 50 -12
105 -5 85 -3 111 16 171 26 86 26 97 1 122 -18 18 -33 20 -154 20 -156 0 -178
-9 -197 -86 -13 -50 -21 -48 -39 8 -21 69 -44 78 -195 78 -132 0 -132 0 -175
-31 l-42 -31 -67 31 c-37 17 -74 31 -82 31 -9 0 -24 7 -35 14 -18 14 -17 17
33 67 l52 52 62 -28 c140 -63 286 -54 448 26 109 54 194 137 245 240 46 95 60
169 52 288 -5 82 -11 104 -45 176 -44 91 -126 177 -200 211 -33 15 -41 24 -41
46 -1 143 -101 303 -231 368 -62 32 -167 54 -209 45 -24 -5 -31 -1 -50 30 -26
43 -124 127 -182 156 -58 30 -183 59 -247 58 -31 0 -82 -7 -113 -15z m306
-118 c88 -43 165 -109 191 -165 l20 -40 70 5 c55 5 81 2 121 -13 75 -29 137
-76 173 -130 40 -60 54 -111 55 -194 l1 -65 54 -24 c70 -31 160 -119 194 -190
40 -83 52 -187 33 -279 -20 -95 -63 -167 -147 -245 -85 -78 -153 -107 -270
-114 -102 -6 -199 19 -265 66 l-39 29 -70 -71 c-55 -56 -84 -76 -134 -95 -120
-47 -242 -45 -346 4 -52 25 -124 86 -158 135 -15 21 -20 23 -35 12 -9 -7 -46
-27 -82 -45 -62 -30 -71 -32 -180 -32 -152 0 -215 23 -312 114 -97 91 -140
180 -146 300 -9 189 75 339 234 417 l54 26 0 64 c0 92 31 166 96 232 30 29 74
62 100 73 57 26 142 35 184 21 30 -11 32 -10 45 22 16 37 106 140 137 157 17
9 18 8 9 -10 -16 -29 -13 -88 5 -127 18 -38 82 -74 132 -74 46 0 72 -33 72
-92 l0 -48 -84 0 c-46 0 -98 -3 -115 -6 -24 -5 -31 -3 -31 9 0 27 -31 35 -101
28 -62 -6 -71 -10 -129 -61 -88 -76 -93 -90 -196 -485 -38 -145 -29 -219 34
-287 53 -56 136 -70 207 -36 49 24 114 126 156 243 9 28 21 49 26 47 4 -1 23
-7 42 -13 45 -15 94 0 145 45 65 57 112 57 158 0 28 -34 72 -47 137 -41 l58 5
23 -69 c53 -158 125 -231 229 -232 70 0 108 22 145 86 47 80 45 110 -24 382
-72 281 -83 303 -192 378 -46 32 -61 37 -120 39 -52 2 -70 -1 -80 -13 -10 -13
-38 -18 -120 -23 l-108 -6 0 48 c-1 91 -51 150 -136 159 -56 6 -80 23 -89 63
-12 53 43 120 120 149 17 6 63 9 103 7 59 -2 86 -10 146 -40z m-295 -544 l1
-33 117 3 c96 2 118 6 120 18 1 8 5 36 8 63 5 38 10 47 26 47 18 0 20 -6 17
-72 l-3 -71 -125 -3 c-69 -2 -139 -6 -157 -9 -26 -5 -34 -2 -43 16 -14 26 -4
130 14 141 12 8 24 -41 25 -100z m-221 71 c5 -10 7 -32 5 -50 -5 -32 -5 -32
43 -35 42 -3 49 -6 52 -26 5 -33 -15 -52 -54 -52 -32 0 -34 -2 -34 -32 0 -46
-12 -60 -46 -56 -27 3 -29 6 -32 50 l-3 47 -47 3 c-45 3 -47 4 -47 33 0 29 2
30 48 33 l47 3 0 43 c0 23 3 46 7 49 13 14 52 7 61 -10z m750 5 c28 -28 -7
-86 -46 -74 -30 10 -44 50 -24 70 19 19 53 21 70 4z m-93 -102 c19 -29 10 -54
-21 -62 -30 -8 -54 11 -54 40 0 47 49 62 75 22z m193 12 c17 -17 15 -53 -3
-68 -38 -31 -96 27 -65 65 15 18 51 20 68 3z m-100 -100 c32 -32 -4 -87 -48
-73 -25 8 -37 50 -20 70 15 18 51 20 68 3z m-544 -80 c22 -31 20 -60 -5 -92
-30 -38 -73 -36 -99 7 -25 40 -25 48 1 81 27 34 81 36 103 4z m380 0 c20 -29
20 -62 0 -93 -34 -53 -124 -15 -124 51 0 58 92 89 124 42z m-214 -17 c0 -16
-27 -31 -44 -25 -19 7 -22 40 -3 47 14 5 47 -10 47 -22z m-1145 -972 c-17 -18
-17 -22 13 -97 90 -225 153 -367 171 -386 12 -12 21 -25 21 -29 0 -4 -40 -7
-90 -7 -49 0 -90 2 -90 5 0 2 5 15 11 27 7 16 7 32 0 51 l-11 27 -104 0 -104
0 -11 -32 c-9 -25 -8 -36 4 -55 l15 -23 -90 0 c-49 0 -90 4 -90 8 0 5 9 17 20
27 11 10 29 43 41 74 25 68 69 169 120 277 44 93 45 96 24 128 l-16 23 92 1
c90 1 91 1 74 -19z m531 -9 c27 -12 50 -23 52 -24 1 -2 -11 -28 -27 -59 -25
-48 -31 -54 -42 -41 -19 23 -77 44 -120 44 -30 0 -42 -5 -55 -25 -16 -24 -15
-27 1 -45 10 -11 55 -31 101 -45 45 -14 96 -37 113 -51 72 -60 53 -183 -37
-244 -31 -22 -46 -25 -112 -24 -66 1 -85 6 -138 34 -34 18 -62 37 -62 42 0 6
8 22 19 36 10 15 22 38 26 50 l7 24 15 -22 c33 -47 145 -75 194 -50 11 6 19
21 19 36 0 27 -26 42 -120 68 -74 21 -113 47 -133 89 -42 88 1 187 100 223 49
18 134 11 199 -16z m534 -53 l-1 -82 -20 28 c-18 24 -27 27 -80 27 l-59 0 0
-192 c0 -183 1 -193 22 -215 l21 -23 -97 0 -97 0 20 29 c19 27 21 43 21 215
l0 186 -56 0 c-49 0 -60 -4 -80 -27 l-24 -28 0 71 c0 38 -4 74 -9 80 -6 5 73
10 215 11 l224 2 0 -82z m406 53 c81 -40 116 -126 89 -218 -16 -54 -58 -112
-80 -112 -27 0 -23 -17 14 -77 63 -99 85 -92 137 42 32 83 53 132 105 243 43
93 46 104 24 122 -29 24 -14 30 75 30 87 0 90 -1 80 -19 -18 -35 -19 -31 66
-218 41 -90 80 -185 87 -215 4 -14 19 -40 33 -57 l26 -31 -91 0 c-83 0 -108 8
-81 25 14 8 12 46 -3 66 -10 13 -30 16 -116 14 -74 -2 -106 -6 -112 -16 -13
-20 -11 -63 3 -77 9 -9 -24 -12 -150 -12 -148 0 -162 2 -162 18 0 26 -89 154
-111 159 -15 4 -19 14 -19 44 0 42 1 43 90 53 51 5 80 33 80 75 -1 55 -45 81
-140 81 l-59 0 0 -192 c1 -160 4 -196 17 -211 8 -9 13 -20 10 -22 -3 -3 -45
-5 -93 -3 l-87 3 21 27 c20 25 21 38 21 241 0 205 -1 215 -21 233 -21 19 -21
19 52 25 128 11 245 3 295 -21z m838 -7 c-23 -35 -24 -42 -24 -214 l0 -179 94
0 c94 0 95 0 116 30 12 17 26 30 31 30 5 0 9 -39 9 -87 l0 -88 -192 3 c-106 2
-195 5 -197 8 -2 2 4 13 13 23 15 17 18 49 23 231 6 203 5 212 -15 239 -11 16
-19 30 -17 32 2 2 44 5 93 6 l90 1 -24 -35z m-1700 -646 c11 -8 15 -19 10 -30
-7 -20 -17 -21 -45 -6 -39 20 -89 -14 -89 -61 0 -38 29 -54 86 -47 58 6 75 -6
43 -32 -49 -41 -145 -19 -169 38 -30 73 24 151 104 151 23 0 50 -6 60 -13z
m146 -67 l0 -80 55 0 c52 0 55 -1 55 -25 0 -25 -1 -25 -80 -25 l-80 0 0 44 c0
23 3 71 6 105 6 50 10 61 25 61 17 0 19 -9 19 -80z m330 67 c60 -47 66 -113
15 -164 -33 -33 -39 -35 -82 -30 -61 7 -103 49 -103 103 0 54 55 104 113 104
23 0 49 -6 57 -13z m218 -2 c7 -7 -11 -95 -19 -95 -5 0 -9 -7 -9 -15 0 -20 32
-35 73 -35 41 0 46 9 54 97 5 58 8 63 29 63 23 0 24 -3 24 -74 0 -85 -15 -113
-75 -135 -47 -17 -95 -8 -125 24 -19 20 -25 40 -28 90 -6 87 0 98 40 90 18 -4
34 -9 36 -10z m392 0 c38 -20 60 -52 60 -90 0 -64 -56 -105 -145 -105 l-55 0
0 105 0 105 55 0 c31 0 69 -7 85 -15z"/>
<path d="M2422 2861 c-17 -21 -37 -57 -44 -80 -9 -30 -21 -44 -43 -53 -16 -6
-50 -25 -75 -42 -24 -17 -48 -34 -53 -37 -15 -11 65 -78 115 -96 38 -14 47
-22 52 -48 8 -39 74 -137 89 -132 17 5 78 98 84 128 4 19 17 32 51 48 26 12
65 37 86 57 l39 35 -23 17 c-13 9 -50 33 -83 52 -46 27 -62 43 -71 71 -12 35
-73 119 -86 119 -4 0 -21 -18 -38 -39z m68 -71 l21 -30 -45 0 c-50 0 -54 4
-30 38 20 29 28 28 54 -8z m22 -97 c20 -18 24 -67 8 -109 -10 -25 -14 -26 -56
-21 -52 5 -73 27 -74 75 0 54 15 72 62 72 25 0 49 -7 60 -17z m-167 -57 l0
-44 -25 14 c-55 29 -55 31 -14 53 21 11 39 20 39 21 0 0 0 -20 0 -44z m287 12
c16 -12 15 -15 -17 -36 l-35 -22 0 45 c0 49 4 50 52 13z m-132 -151 c0 -7 -7
-23 -16 -35 -15 -22 -17 -22 -34 -7 -10 9 -20 25 -23 36 -4 16 0 19 34 19 25
0 39 -5 39 -13z"/>
<path d="M1260 1937 c0 -7 -8 -31 -19 -53 -10 -21 -21 -52 -25 -67 l-7 -28 61
3 c33 1 60 5 60 8 0 3 -12 38 -27 78 -26 66 -43 91 -43 59z"/>
<path d="M3151 1881 c-17 -44 -31 -82 -31 -85 0 -4 29 -6 65 -6 36 0 65 4 65
9 0 8 -59 152 -65 159 -1 1 -16 -33 -34 -77z"/>
<path d="M2337 1399 c-31 -23 -34 -45 -11 -77 10 -15 25 -22 48 -22 39 0 56
15 56 50 0 56 -51 83 -93 49z"/>
<path d="M2944 1388 c3 -13 6 -38 6 -55 0 -31 2 -33 34 -33 35 0 66 27 66 57
0 26 -39 53 -76 53 -33 0 -36 -2 -30 -22z"/>
<path d="M3590 2377 c0 -20 4 -37 9 -37 10 0 8 57 -3 67 -3 3 -6 -10 -6 -30z"/>
<path d="M3620 2400 c0 -5 4 -10 9 -10 6 0 13 5 16 10 3 6 -1 10 -9 10 -9 0
-16 -4 -16 -10z"/>
<path d="M3665 2390 c3 -5 8 -10 11 -10 2 0 4 5 4 10 0 6 -5 10 -11 10 -5 0
-7 -4 -4 -10z"/>
<path d="M3666 2361 c-4 -7 -5 -15 -2 -18 9 -9 19 4 14 18 -4 11 -6 11 -12 0z"/>
<path d="M3620 2339 c0 -24 23 -21 28 4 2 10 -3 17 -12 17 -10 0 -16 -9 -16
-21z"/>
</g>
</svg>
